<svg width="238" height="280" viewBox="0 0 238 280" fill="none" xmlns="http://www.w3.org/2000/svg">
<path fill-rule="evenodd" clip-rule="evenodd" d="M238 3.99019H190.027V3.99048H190.011V75.7457C181.801 55.3442 173.807 37.9418 156.657 23.3481C138.652 7.99708 114.608 0.480469 91.1368 0.480469C60.2864 0.480469 37.3764 7.89643 22.4068 22.7284H22.4386C7.47952 37.5391 0 58.9818 0 87.0565V193.354H0.0712085C0.550722 221.751 7.71429 243.098 21.5622 257.396C35.9067 272.207 58.4354 279.638 89.1481 279.691C105.334 279.898 121.394 276.828 136.361 270.665C163.726 259.064 179.061 233.018 186.212 205.288C187.322 200.952 188.391 196.603 189.456 192.265L189.693 191.304C189.693 191.114 189.768 190.911 189.844 190.708C189.889 190.588 189.933 190.468 189.963 190.35V273.796L190.156 273.796H238V3.99019ZM190.011 172.572L190.011 97.9772C188.728 93.1371 187.104 88.3938 185.15 83.7829C178.37 68.0505 169.116 57.0219 157.388 50.6971C145.66 44.3724 131.157 41.1941 113.877 41.1623C99.3633 41.1623 87.7097 43.0163 78.9165 46.7243C70.598 49.983 63.8197 56.2673 59.9421 64.316C56.0752 72.3464 54.147 82.84 54.1576 95.7968V95.8603H54.203V181.022C54.1501 201.077 58.6208 215.655 67.6152 224.755C76.6098 233.855 91.4417 238.406 112.111 238.406C125.792 238.659 139.344 235.726 151.696 229.84C163.202 224.141 172.737 214.267 180.301 200.219C184.799 191.494 188.066 182.19 190.011 172.572Z" fill="#82C809"/>
</svg>
