<svg version="1.0" id="Layer_1" xmlns="http://www.w3.org/2000/svg" xmlns:xlink="http://www.w3.org/1999/xlink" x="0px" y="0px" width="219.05px" height="35.008px" viewBox="0 0 219.05 35.008" enable-background="new 0 0 219.05 35.008" xml:space="preserve">
<g>
	<polygon fill="#CF0A2C" points="45.065,0.166 35.271,34.841 72.59,34.841 62.795,0.166 	"></polygon>
	<polygon fill="#CF0A2C" points="27.539,0.166 10.075,0.166 0.281,34.841 28.188,34.841 33.076,17.54 22.631,17.54 	"></polygon>
	<polygon fill="#CF0A2C" points="113.897,0.166 104.104,34.842 141.422,34.842 131.628,0.166 	"></polygon>
	<polygon fill="#CF0A2C" points="97.135,34.842 106.928,0.166 69.61,0.166 79.404,34.842 	"></polygon>
	<path fill="#929288" d="M137.956,1.39c1.237,0,2.243,1.007,2.243,2.244c0,1.238-1.006,2.245-2.243,2.245
		c-1.238,0-2.245-1.007-2.245-2.245C135.711,2.396,136.718,1.39,137.956,1.39 M137.956,0.166c-1.916,0-3.468,1.553-3.468,3.468
		c0,1.917,1.552,3.468,3.468,3.468c1.915,0,3.466-1.551,3.466-3.468C141.422,1.719,139.871,0.166,137.956,0.166L137.956,0.166z"></path>
	<g>
		<path fill="#929288" d="M153.871,14.382h-5.514V0.742h5.305c2.529,0,4.12,1.438,4.12,3.738c0,1.474-0.919,2.527-1.839,2.891
			c1.053,0.422,2.048,1.436,2.048,3.162C157.991,13.042,156.289,14.382,153.871,14.382z M153.489,2.603h-3.061v3.905h3.061
			c1.323,0,2.223-0.689,2.223-1.955C155.712,3.292,154.812,2.603,153.489,2.603z M153.685,8.366h-3.256v4.157h3.256
			c1.434,0,2.243-0.878,2.243-2.089C155.928,9.226,155.118,8.366,153.685,8.366z"></path>
		<path fill="#929288" d="M168.201,14.382l-2.875-5.747h-2.583v5.747h-2.071V0.742h5.29c2.583,0,4.23,1.668,4.23,3.987
			c0,1.952-1.187,3.197-2.716,3.618l3.144,6.035H168.201z M165.811,2.603h-3.068v4.269h3.068c1.373,0,2.316-0.785,2.316-2.125
			C168.127,3.406,167.184,2.603,165.811,2.603z"></path>
		<path fill="#929288" d="M180.671,14.382l-0.936-2.737h-5.385l-0.942,2.737h-2.201l5.003-13.64h1.667l4.999,13.64H180.671z
			 M177.094,3.826l-2.131,6.055h4.195L177.094,3.826z"></path>
		<path fill="#929288" d="M192.798,14.382l-6.301-9.598v9.598h-2.07V0.742h1.897l6.303,9.58v-9.58h2.066v13.64H192.798z"></path>
		<path fill="#929288" d="M206.186,13.098c-0.861,0.86-2.108,1.284-3.522,1.284h-4.79V0.742h4.79c1.414,0,2.661,0.424,3.522,1.285
			c1.473,1.476,1.378,3.467,1.378,5.439S207.659,11.622,206.186,13.098z M204.771,3.522c-0.578-0.636-1.343-0.919-2.319-0.919
			h-2.511v9.92h2.511c0.976,0,1.741-0.286,2.319-0.921c0.708-0.784,0.729-2.258,0.729-4.137
			C205.499,5.589,205.479,4.306,204.771,3.522z"></path>
		<path fill="#929288" d="M213.869,14.498c-2.051,0-3.528-0.48-4.832-1.801l1.382-1.361c0.998,0.998,2.092,1.302,3.488,1.302
			c1.782,0,2.814-0.766,2.814-2.087c0-0.595-0.17-1.093-0.534-1.417c-0.347-0.327-0.691-0.458-1.499-0.576l-1.609-0.229
			c-1.11-0.153-1.989-0.536-2.582-1.092c-0.671-0.632-1-1.495-1-2.605c0-2.378,1.726-4.004,4.559-4.004
			c1.802,0,3.064,0.458,4.234,1.552l-1.321,1.301c-0.841-0.805-1.818-1.053-2.971-1.053c-1.613,0-2.49,0.918-2.49,2.125
			c0,0.499,0.154,0.94,0.517,1.266c0.347,0.306,0.901,0.536,1.536,0.63l1.549,0.231c1.266,0.191,1.972,0.5,2.547,1.015
			c0.748,0.652,1.109,1.63,1.109,2.801C218.769,13.004,216.721,14.498,213.869,14.498z"></path>
	</g>
</g>
</svg>