<svg xmlns="http://www.w3.org/2000/svg" width="247.928" height="58.596" viewBox="0 0 247.928 58.596">
    <g data-name="Group 2">
        <g data-name="Group 1">
            <path data-name="Path 1" d="m76.784 136.594-39.076 22.553V114.03l6.987 4.034v29.016l25.119-14.51 2.522 1.455 4.448 2.568zm-39.076-28.018 8.516 4.917v.009l15.126 8.733L78 112.619v46.528l6.988-4.036v-54.56L61.349 114.2l-23.641-13.649z" transform="translate(-37.708 -100.551)" style="fill-rule:evenodd"/>
            <path data-name="Path 2" d="m61.348 123.151-8.116 4.686-8.116 4.686v-18.744l8.116 4.685z" transform="translate(-33.957 -93.852)" style="fill:#015664;fill-rule:evenodd"/>
        </g>
        <path data-name="Path 3" d="M82.368 110.583h7.073l7.614 20.512 7.614-20.512h6.907L99.8 139.915h-5.657z" transform="translate(-15.093 -95.471)" style="fill-rule:evenodd"/>
        <path data-name="Path 4" d="M104.548 117.825h6.324v22.3h-6.324v-22.3zm-.167-8.071h6.657v5.617h-6.657z" transform="translate(-3.945 -95.891)" style="fill-rule:evenodd"/>
        <path data-name="Path 5" d="M123.751 135.176a5.1 5.1 0 0 0 2.1-.437 5.005 5.005 0 0 0 1.705-1.249 6.19 6.19 0 0 0 1.164-1.955 6.977 6.977 0 0 0 .437-2.517v-.083a6.977 6.977 0 0 0-.437-2.517 6.207 6.207 0 0 0-1.164-1.955 5.025 5.025 0 0 0-1.705-1.249 5.273 5.273 0 0 0-4.2 0 5.225 5.225 0 0 0-1.726 1.249 6.025 6.025 0 0 0-1.186 1.934 6.938 6.938 0 0 0-.437 2.538v.083a6.977 6.977 0 0 0 .437 2.517 5.966 5.966 0 0 0 1.186 1.955 5.2 5.2 0 0 0 1.726 1.249 5.1 5.1 0 0 0 2.1.437zm-1.622 5.367a9.922 9.922 0 0 1-3.787-.749 9.375 9.375 0 0 1-3.245-2.226 11.09 11.09 0 0 1-2.267-3.62 13.24 13.24 0 0 1-.854-4.93v-.083a13.24 13.24 0 0 1 .854-4.93 11.278 11.278 0 0 1 2.246-3.62 9.183 9.183 0 0 1 3.225-2.226 10.024 10.024 0 0 1 3.828-.749 7.937 7.937 0 0 1 4.18 1 11.153 11.153 0 0 1 2.767 2.33v-10.986h6.324v30.373h-6.324v-3.2a10.01 10.01 0 0 1-2.808 2.6 7.731 7.731 0 0 1-4.139 1.016z" transform="translate(-.099 -95.891)" style="fill-rule:evenodd"/>
        <path data-name="Path 6" d="M132.139 139.707h3.2v-23.549l10.609 15.561h.167l10.609-15.6v23.591h3.287v-29.127h-3.329l-10.609 15.893-10.609-15.893h-3.329z" transform="translate(10.111 -95.471)" style="fill-rule:evenodd"/>
        <path data-name="Path 7" d="M162.707 137.7a9.43 9.43 0 0 0 7.781-3.7v3.246h3.078V124.1a8.49 8.49 0 0 0-2.2-6.283c-1.582-1.58-3.912-2.371-6.949-2.371a17.742 17.742 0 0 0-7.821 1.79l.957 2.621a14.971 14.971 0 0 1 6.532-1.582c4.036 0 6.408 2 6.408 5.867v.749a22.85 22.85 0 0 0-6.616-.916c-5.45 0-9.2 2.413-9.2 6.949v.083c0 4.409 4.036 6.7 8.031 6.7zm.624-2.537c-2.912 0-5.408-1.582-5.408-4.286v-.077c0-2.705 2.246-4.453 6.282-4.453a22.419 22.419 0 0 1 6.324.916v2.08c-.001 3.409-3.246 5.823-7.199 5.823z" transform="translate(21.524 -93.009)" style="fill-rule:evenodd"/>
        <path data-name="Path 8" d="M179.434 139.7a8.072 8.072 0 0 0 3.87-.914v-2.746a6.742 6.742 0 0 1-3.121.749c-2.163 0-3.62-.958-3.62-3.578v-12.563h6.824v-2.829h-6.824v-6.49h-3.2v6.49h-3v2.829h3v12.982c-.003 4.37 2.618 6.07 6.071 6.07z" transform="translate(29.468 -95.093)" style="fill-rule:evenodd"/>
        <path data-name="Path 9" d="M182.82 113.705h3.662v-3.537h-3.662v3.537zm.209 26.213h3.2v-21.512h-3.2z" transform="translate(35.775 -95.681)" style="fill-rule:evenodd"/>
        <path data-name="Path 10" d="M200.171 137.8a11.08 11.08 0 0 0 8.778-4.161l-2.038-1.913a8.875 8.875 0 0 1-6.574 3.2 8.037 8.037 0 0 1-7.906-8.362v-.083c0-4.619 3.329-8.321 7.7-8.321 2.912 0 4.826 1.455 6.532 3.245l2.123-2.248a11.2 11.2 0 0 0-19.637 7.407v.083a11.043 11.043 0 0 0 11.022 11.153z" transform="translate(38.979 -93.066)" style="fill-rule:evenodd"/>
    </g>
</svg>
